<mxfile host="65bd71144e">
    <diagram id="Pv_gWV90Ba3eqNqCVvZ-" name="Page-1">
        <mxGraphModel dx="1724" dy="896" grid="1" gridSize="10" guides="1" tooltips="1" connect="1" arrows="1" fold="1" page="1" pageScale="1" pageWidth="850" pageHeight="1100" background="#ffffff" math="0" shadow="0">
            <root>
                <mxCell id="0"/>
                <mxCell id="1" parent="0"/>
                <mxCell id="2" value="HOST&lt;br style=&quot;font-size: 16px;&quot;&gt;Eg. SoC" style="whiteSpace=wrap;html=1;aspect=fixed;verticalAlign=top;fontSize=16;rounded=1;labelBackgroundColor=none;fillColor=#D1D3D4;strokeColor=#464749;fontColor=#464749;fontFamily=Arial Nova Light;labelBorderColor=none;shadow=1;fontStyle=1" parent="1" vertex="1">
                    <mxGeometry x="20" y="260" width="300" height="300" as="geometry"/>
                </mxCell>
                <mxCell id="3" value="Application" style="rounded=1;whiteSpace=wrap;html=1;labelBackgroundColor=none;fillColor=#FFFFFF;strokeColor=#464749;fontColor=#464749;fontFamily=Arial Nova Light;labelBorderColor=none;" parent="1" vertex="1">
                    <mxGeometry x="60" y="340" width="120" height="60" as="geometry"/>
                </mxCell>
                <mxCell id="4" style="edgeStyle=orthogonalEdgeStyle;rounded=1;orthogonalLoop=1;jettySize=auto;html=1;exitX=1;exitY=0.5;exitDx=0;exitDy=0;entryX=0;entryY=0.5;entryDx=0;entryDy=0;fontSize=16;labelBackgroundColor=none;strokeColor=#464749;fontColor=default;fontFamily=Arial Nova Light;labelBorderColor=none;" parent="1" source="5" target="17" edge="1">
                    <mxGeometry relative="1" as="geometry"/>
                </mxCell>
                <mxCell id="5" value="GPIO output&lt;br&gt;Host Status" style="rounded=1;whiteSpace=wrap;html=1;labelBackgroundColor=none;fillColor=#FFFFFF;strokeColor=#464749;fontColor=#464749;fontFamily=Arial Nova Light;labelBorderColor=none;" parent="1" vertex="1">
                    <mxGeometry x="240" y="390" width="80" height="60" as="geometry"/>
                </mxCell>
                <mxCell id="6" value="GPIO input&lt;br&gt;Wakeup" style="rounded=1;whiteSpace=wrap;html=1;labelBackgroundColor=none;fillColor=#FFFFFF;strokeColor=#464749;fontColor=#464749;fontFamily=Arial Nova Light;labelBorderColor=none;" parent="1" vertex="1">
                    <mxGeometry x="240" y="470" width="80" height="60" as="geometry"/>
                </mxCell>
                <mxCell id="7" value="Communication &lt;br&gt;Interface&lt;br&gt;(I2C slave or UART RX)" style="rounded=1;whiteSpace=wrap;html=1;labelBackgroundColor=none;fillColor=#FFFFFF;strokeColor=#464749;fontColor=#464749;fontFamily=Arial Nova Light;labelBorderColor=none;" parent="1" vertex="1">
                    <mxGeometry x="80" y="500" width="140" height="60" as="geometry"/>
                </mxCell>
                <mxCell id="8" value="FFD&lt;br&gt;XCORE Device" style="whiteSpace=wrap;html=1;aspect=fixed;verticalAlign=top;fontSize=16;rounded=1;labelBackgroundColor=none;fillColor=#D1D3D4;strokeColor=#464749;fontColor=#464749;fontFamily=Arial Nova Light;labelBorderColor=none;shadow=1;fontStyle=1" parent="1" vertex="1">
                    <mxGeometry x="520" y="260" width="300" height="300" as="geometry"/>
                </mxCell>
                <mxCell id="9" value="I2S Slave" style="rounded=1;whiteSpace=wrap;html=1;labelBackgroundColor=none;fillColor=#FFFFFF;strokeColor=#464749;fontColor=#464749;fontFamily=Arial Nova Light;labelBorderColor=none;" parent="1" vertex="1">
                    <mxGeometry x="240" y="300" width="80" height="60" as="geometry"/>
                </mxCell>
                <mxCell id="10" style="edgeStyle=orthogonalEdgeStyle;rounded=1;orthogonalLoop=1;jettySize=auto;html=1;exitX=0.5;exitY=0;exitDx=0;exitDy=0;entryX=0;entryY=0.5;entryDx=0;entryDy=0;fontSize=16;labelBackgroundColor=none;strokeColor=#464749;fontColor=default;" parent="1" source="11" target="12" edge="1">
                    <mxGeometry relative="1" as="geometry"/>
                </mxCell>
                <mxCell id="11" value="DAC" style="rounded=1;whiteSpace=wrap;html=1;fontSize=16;labelBackgroundColor=none;fillColor=#FFFFFF;strokeColor=#464749;fontColor=#464749;fontFamily=Arial Nova Light;labelBorderColor=none;shadow=1;fontStyle=1" parent="1" vertex="1">
                    <mxGeometry x="350" y="200" width="140" height="80" as="geometry"/>
                </mxCell>
                <mxCell id="12" value="" style="rounded=1;whiteSpace=wrap;html=1;fontSize=16;labelBackgroundColor=none;fillColor=#D1D3D4;strokeColor=#464749;fontColor=#464749;shadow=1;" parent="1" vertex="1">
                    <mxGeometry x="580" y="100" width="50" height="65" as="geometry"/>
                </mxCell>
                <mxCell id="13" value="" style="shape=trapezoid;perimeter=trapezoidPerimeter;whiteSpace=wrap;html=1;fixedSize=1;fontSize=16;rotation=-90;size=45;rounded=1;labelBackgroundColor=none;fillColor=#D1D3D4;strokeColor=#464749;fontColor=#464749;shadow=1;" parent="1" vertex="1">
                    <mxGeometry x="580" y="105" width="155" height="55" as="geometry"/>
                </mxCell>
                <mxCell id="14" style="edgeStyle=orthogonalEdgeStyle;rounded=1;orthogonalLoop=1;jettySize=auto;html=1;exitX=0;exitY=0.5;exitDx=0;exitDy=0;entryX=1;entryY=0.5;entryDx=0;entryDy=0;fontSize=16;labelBackgroundColor=none;strokeColor=#464749;fontColor=default;fontFamily=Arial Nova Light;labelBorderColor=none;" parent="1" source="16" target="9" edge="1">
                    <mxGeometry relative="1" as="geometry"/>
                </mxCell>
                <mxCell id="15" style="edgeStyle=orthogonalEdgeStyle;rounded=1;orthogonalLoop=1;jettySize=auto;html=1;exitDx=0;exitDy=0;entryX=0.5;entryY=1;entryDx=0;entryDy=0;fontSize=16;labelBackgroundColor=none;strokeColor=#464749;fontColor=default;fontFamily=Arial Nova Light;labelBorderColor=none;startArrow=none;" parent="1" source="31" target="11" edge="1">
                    <mxGeometry relative="1" as="geometry"/>
                </mxCell>
                <mxCell id="16" value="I2S Master" style="rounded=1;whiteSpace=wrap;html=1;labelBackgroundColor=none;fillColor=#FFFFFF;strokeColor=#464749;fontColor=#464749;fontFamily=Arial Nova Light;labelBorderColor=none;" parent="1" vertex="1">
                    <mxGeometry x="520" y="300" width="80" height="60" as="geometry"/>
                </mxCell>
                <mxCell id="17" value="GPIO input&lt;br&gt;Host Status" style="rounded=1;whiteSpace=wrap;html=1;labelBackgroundColor=none;fillColor=#FFFFFF;strokeColor=#464749;fontColor=#464749;fontFamily=Arial Nova Light;labelBorderColor=none;" parent="1" vertex="1">
                    <mxGeometry x="520" y="390" width="80" height="60" as="geometry"/>
                </mxCell>
                <mxCell id="18" style="edgeStyle=orthogonalEdgeStyle;rounded=1;orthogonalLoop=1;jettySize=auto;html=1;exitX=0;exitY=0.5;exitDx=0;exitDy=0;entryX=1;entryY=0.5;entryDx=0;entryDy=0;fontSize=16;labelBackgroundColor=none;strokeColor=#464749;fontColor=default;fontFamily=Arial Nova Light;labelBorderColor=none;" parent="1" source="19" target="6" edge="1">
                    <mxGeometry relative="1" as="geometry"/>
                </mxCell>
                <mxCell id="19" value="GPIO output&lt;br&gt;Wakeup" style="rounded=1;whiteSpace=wrap;html=1;labelBackgroundColor=none;fillColor=#FFFFFF;strokeColor=#464749;fontColor=#464749;fontFamily=Arial Nova Light;labelBorderColor=none;" parent="1" vertex="1">
                    <mxGeometry x="520" y="470" width="80" height="60" as="geometry"/>
                </mxCell>
                <mxCell id="20" style="edgeStyle=orthogonalEdgeStyle;rounded=1;orthogonalLoop=1;jettySize=auto;html=1;exitX=0.25;exitY=1;exitDx=0;exitDy=0;entryX=0.5;entryY=1;entryDx=0;entryDy=0;fontSize=16;labelBackgroundColor=none;strokeColor=#464749;fontColor=default;fontFamily=Arial Nova Light;labelBorderColor=none;" parent="1" source="21" target="7" edge="1">
                    <mxGeometry relative="1" as="geometry">
                        <Array as="points">
                            <mxPoint x="655" y="600"/>
                            <mxPoint x="150" y="600"/>
                        </Array>
                    </mxGeometry>
                </mxCell>
                <mxCell id="21" value="Communication &lt;br&gt;Interface&lt;br&gt;(I2C master and UART TX)" style="rounded=1;whiteSpace=wrap;html=1;labelBackgroundColor=none;fillColor=#FFFFFF;strokeColor=#464749;fontColor=#464749;fontFamily=Arial Nova Light;labelBorderColor=none;" parent="1" vertex="1">
                    <mxGeometry x="620" y="500" width="140" height="60" as="geometry"/>
                </mxCell>
                <mxCell id="22" value="Application" style="rounded=1;whiteSpace=wrap;html=1;labelBackgroundColor=none;fillColor=#FFFFFF;strokeColor=#464749;fontColor=#464749;fontFamily=Arial Nova Light;labelBorderColor=none;" parent="1" vertex="1">
                    <mxGeometry x="60" y="340" width="120" height="60" as="geometry"/>
                </mxCell>
                <mxCell id="23" value="Communication &lt;br&gt;Interface&lt;br&gt;(I2C slave or UART RX)" style="rounded=1;whiteSpace=wrap;html=1;labelBackgroundColor=none;fillColor=#FFFFFF;strokeColor=#464749;fontColor=#464749;fontFamily=Arial Nova Light;labelBorderColor=none;" parent="1" vertex="1">
                    <mxGeometry x="80" y="500" width="140" height="60" as="geometry"/>
                </mxCell>
                <mxCell id="24" value="GPIO input&lt;br&gt;Wakeup" style="rounded=1;whiteSpace=wrap;html=1;labelBackgroundColor=none;fillColor=#FFFFFF;strokeColor=#464749;fontColor=#464749;fontFamily=Arial Nova Light;labelBorderColor=none;" parent="1" vertex="1">
                    <mxGeometry x="240" y="470" width="80" height="60" as="geometry"/>
                </mxCell>
                <mxCell id="25" value="GPIO output&lt;br&gt;Host Status" style="rounded=1;whiteSpace=wrap;html=1;labelBackgroundColor=none;fillColor=#FFFFFF;strokeColor=#464749;fontColor=#464749;fontFamily=Arial Nova Light;labelBorderColor=none;" parent="1" vertex="1">
                    <mxGeometry x="240" y="390" width="80" height="60" as="geometry"/>
                </mxCell>
                <mxCell id="26" value="I2S Slave" style="rounded=1;whiteSpace=wrap;html=1;labelBackgroundColor=none;fillColor=#FFFFFF;strokeColor=#464749;fontColor=#464749;fontFamily=Arial Nova Light;labelBorderColor=none;" parent="1" vertex="1">
                    <mxGeometry x="240" y="300" width="80" height="60" as="geometry"/>
                </mxCell>
                <mxCell id="27" value="I2S Master" style="rounded=1;whiteSpace=wrap;html=1;labelBackgroundColor=none;fillColor=#FFFFFF;strokeColor=#464749;fontColor=#464749;fontFamily=Arial Nova Light;labelBorderColor=none;" parent="1" vertex="1">
                    <mxGeometry x="520" y="300" width="80" height="60" as="geometry"/>
                </mxCell>
                <mxCell id="28" value="GPIO input&lt;br&gt;Host Status" style="rounded=1;whiteSpace=wrap;html=1;labelBackgroundColor=none;fillColor=#FFFFFF;strokeColor=#464749;fontColor=#464749;fontFamily=Arial Nova Light;labelBorderColor=none;" parent="1" vertex="1">
                    <mxGeometry x="520" y="390" width="80" height="60" as="geometry"/>
                </mxCell>
                <mxCell id="29" value="GPIO output&lt;br&gt;Wakeup" style="rounded=1;whiteSpace=wrap;html=1;labelBackgroundColor=none;fillColor=#FFFFFF;strokeColor=#464749;fontColor=#464749;fontFamily=Arial Nova Light;labelBorderColor=none;" parent="1" vertex="1">
                    <mxGeometry x="520" y="470" width="80" height="60" as="geometry"/>
                </mxCell>
                <mxCell id="30" value="" style="edgeStyle=orthogonalEdgeStyle;rounded=1;orthogonalLoop=1;jettySize=auto;html=1;entryDx=0;entryDy=0;fontSize=16;labelBackgroundColor=none;strokeColor=#464749;fontColor=default;fontFamily=Arial Nova Light;labelBorderColor=none;endArrow=none;exitX=0.49;exitY=1.093;exitDx=0;exitDy=0;exitPerimeter=0;" parent="1" source="31" target="31" edge="1">
                    <mxGeometry relative="1" as="geometry">
                        <mxPoint x="410" y="350" as="sourcePoint"/>
                        <mxPoint x="420" y="280" as="targetPoint"/>
                        <Array as="points">
                            <mxPoint x="420" y="330"/>
                            <mxPoint x="420" y="330"/>
                        </Array>
                    </mxGeometry>
                </mxCell>
                <mxCell id="31" value="" style="shape=waypoint;sketch=0;fillStyle=solid;size=6;pointerEvents=1;points=[];fillColor=none;resizable=0;rotatable=0;perimeter=centerPerimeter;snapToPoint=1;hachureGap=4;jiggle=2;curveFitting=1;strokeColor=#464749;fontFamily=Architects Daughter;fontSource=https%3A%2F%2Ffonts.googleapis.com%2Fcss%3Ffamily%3DArchitects%2BDaughter;fontSize=20;fontColor=#464749;" parent="1" vertex="1">
                    <mxGeometry x="410" y="320" width="20" height="20" as="geometry"/>
                </mxCell>
            </root>
        </mxGraphModel>
    </diagram>
</mxfile>